<?xml version="1.0" standalone="no"?>
<!DOCTYPE svg PUBLIC "-//W3C//DTD SVG 20010904//EN"
 "http://www.w3.org/TR/2001/REC-SVG-20010904/DTD/svg10.dtd">
<svg version="1.0" xmlns="http://www.w3.org/2000/svg"
 width="360.000000pt" height="360.000000pt" viewBox="0 0 360.000000 360.000000"
 preserveAspectRatio="xMidYMid meet">
<metadata>
Created by potrace 1.14, written by Peter Selinger 2001-2017
</metadata>
<g transform="translate(0.000000,360.000000) scale(0.100000,-0.100000)"
fill="#000000" stroke="none">
<path d="M1659 3316 c-2 -2 -29 -6 -59 -9 -191 -21 -430 -105 -603 -214 -242
-151 -448 -385 -571 -648 -33 -70 -91 -242 -101 -300 -37 -212 -42 -370 -19
-536 94 -667 619 -1186 1294 -1277 62 -8 302 -8 375 0 551 63 1046 460 1228
988 27 77 48 150 54 185 2 11 8 43 14 70 18 81 20 357 3 460 -61 381 -217 663
-518 933 -59 53 -210 151 -307 199 -83 41 -233 96 -289 107 -14 2 -46 9 -71
15 -25 6 -64 13 -85 16 -44 7 -340 16 -345 11z"/>
</g>
</svg>
